<svg width="54" height="54" viewBox="0 0 54 54" fill="none" xmlns="http://www.w3.org/2000/svg">
<path d="M23.625 4.50629C22.1061 4.52687 21.1943 4.61481 20.457 4.99047C19.6103 5.4219 18.9219 6.11031 18.4905 6.95704C18.1148 7.69432 18.0269 8.60614 18.0063 10.125M43.875 4.50629C45.3939 4.52687 46.3057 4.61481 47.043 4.99047C47.8897 5.4219 48.5781 6.11031 49.0095 6.95704C49.3852 7.69432 49.4731 8.60613 49.4937 10.125M49.4937 30.375C49.4731 31.8939 49.3852 32.8057 49.0095 33.543C48.5781 34.3897 47.8897 35.0781 47.043 35.5095C46.3057 35.8852 45.3939 35.9731 43.875 35.9937M49.5 18V22.5M31.5001 4.5H35.9999M11.7 49.5H28.8C31.3202 49.5 32.5804 49.5 33.543 49.0095C34.3897 48.5781 35.0781 47.8897 35.5095 47.043C36 46.0804 36 44.8202 36 42.3V25.2C36 22.6798 36 21.4196 35.5095 20.457C35.0781 19.6103 34.3897 18.9219 33.543 18.4905C32.5804 18 31.3202 18 28.8 18H11.7C9.17976 18 7.91965 18 6.95704 18.4905C6.11031 18.9219 5.4219 19.6103 4.99047 20.457C4.5 21.4196 4.5 22.6798 4.5 25.2V42.3C4.5 44.8202 4.5 46.0804 4.99047 47.043C5.4219 47.8897 6.11031 48.5781 6.95704 49.0095C7.91965 49.5 9.17976 49.5 11.7 49.5Z" stroke="black" stroke-width="2" stroke-linecap="round" stroke-linejoin="round"/>
</svg>
