<svg width="48" height="48" viewBox="0 0 48 48" fill="none" xmlns="http://www.w3.org/2000/svg">
<path d="M16 6H15.6C12.2397 6 10.5595 6 9.27606 6.65396C8.14708 7.2292 7.2292 8.14708 6.65396 9.27606C6 10.5595 6 12.2397 6 15.6V16M16 42H15.6C12.2397 42 10.5595 42 9.27606 41.346C8.14708 40.7708 7.2292 39.8529 6.65396 38.7239C6 37.4405 6 35.7603 6 32.4V32M42 16V15.6C42 12.2397 42 10.5595 41.346 9.27606C40.7708 8.14708 39.8529 7.2292 38.7239 6.65396C37.4405 6 35.7603 6 32.4 6H32M42 32V32.4C42 35.7603 42 37.4405 41.346 38.7239C40.7708 39.8529 39.8529 40.7708 38.7239 41.346C37.4405 42 35.7603 42 32.4 42H32M15 16V19M33 16V19M22 25.2002C23.6 25.2002 25 23.8002 25 22.2002V16M30.4004 30.3999C26.8004 33.9999 21.0004 33.9999 17.4004 30.3999" stroke="black" stroke-width="2" stroke-linecap="round" stroke-linejoin="round"/>
</svg>
