<svg width="46" height="47" viewBox="0 0 46 47" fill="none" xmlns="http://www.w3.org/2000/svg">
<path d="M21.0833 29.375H15.3333C11.761 29.375 9.97492 29.375 8.56601 29.9713C6.68746 30.7663 5.19496 32.2913 4.41684 34.2106C3.83325 35.6502 3.83325 37.4751 3.83325 41.125M29.7083 6.4444C32.5179 7.60645 34.4999 10.4209 34.4999 13.7083M22.9997 42.1042L26.8811 41.311C27.2195 41.2419 27.3887 41.2073 27.5465 41.1441C27.6866 41.088 27.8197 41.0152 27.9431 40.9272C28.0821 40.8282 28.2041 40.7035 28.4481 40.4542L41.2083 27.4168C42.2669 26.3352 42.2669 24.5815 41.2083 23.4999C40.1497 22.4184 38.4335 22.4184 37.3749 23.5L24.6147 36.5376C24.3707 36.7869 24.2487 36.9115 24.1518 37.0536C24.0657 37.1796 23.9945 37.3156 23.9396 37.4587C23.8777 37.6199 23.8438 37.7928 23.7761 38.1385L22.9997 42.1042ZM25.8749 13.7083C25.8749 18.0346 22.4424 21.5417 18.2083 21.5417C13.9741 21.5417 10.5416 18.0346 10.5416 13.7083C10.5416 9.3821 13.9741 5.875 18.2083 5.875C22.4424 5.875 25.8749 9.3821 25.8749 13.7083Z" stroke="black" stroke-width="2" stroke-linecap="round" stroke-linejoin="round"/>
</svg>
